<svg width="17" height="16" viewBox="0 0 17 16" fill="none" xmlns="http://www.w3.org/2000/svg">
<path d="M16.9434 5.89643C16.8058 5.47519 16.4418 5.1673 16.002 5.10304L11.823 4.49518L9.95277 0.708149C9.56079 -0.0898908 8.25292 -0.0898908 7.86094 0.708149L5.99074 4.49518L1.8116 5.10318C1.37177 5.1673 1.00782 5.47424 0.868908 5.89657C0.732461 6.3189 0.845528 6.7832 1.16409 7.09247L4.18931 10.0407L3.47535 14.2035C3.4007 14.641 3.58035 15.0831 3.93856 15.3445C4.30142 15.6083 4.77502 15.6408 5.16823 15.4331L8.90631 13.4672L12.6444 15.4331C12.8147 15.5229 13.0026 15.5672 13.1881 15.5672C13.4296 15.5672 13.6712 15.4926 13.8742 15.3444C14.2335 15.0831 14.4131 14.6408 14.3374 14.2033L13.6235 10.0406L16.6487 7.09233C16.9656 6.78197 17.08 6.31876 16.9434 5.89643ZM11.5558 8.79915C11.2817 9.0663 11.1556 9.45363 11.221 9.83167L11.6387 12.2689L9.45005 11.1185C9.2797 11.0287 9.09307 10.9844 8.90631 10.9844C8.71969 10.9844 8.53416 11.0287 8.36257 11.1185L6.17381 12.2689L6.59149 9.83167C6.65684 9.45363 6.53079 9.06753 6.25666 8.79915L4.48449 7.0725L6.9322 6.71662C7.31256 6.6618 7.64041 6.42267 7.81077 6.07841L8.90508 3.86175L9.99939 6.07841C10.1697 6.42253 10.4976 6.6618 10.878 6.71662L13.3257 7.0725L11.5558 8.79915Z" fill="#2196F3"/>
</svg>
