<svg width="8" height="8" viewBox="0 0 8 8" fill="none" xmlns="http://www.w3.org/2000/svg">
<path d="M4.35267 0.333256H4.34217C2.40915 0.330339 0.839835 1.89499 0.836918 3.82801C0.834001 5.76103 2.39865 7.33035 4.33167 7.33326H4.34217C6.27519 7.33618 7.8445 5.77153 7.84741 3.83851C7.85033 1.90549 6.28569 0.336173 4.35267 0.333256ZM5.16933 4.66043C4.94971 4.87889 4.65206 5.00109 4.34217 4.99993C3.69788 4.99657 3.17827 4.47157 3.18163 3.82728C3.18323 3.51884 3.3069 3.22368 3.5255 3.00609C3.74265 2.79011 4.03592 2.6682 4.34217 2.66659C4.98646 2.66995 5.50606 3.19494 5.50271 3.83924C5.5011 4.14767 5.37744 4.44284 5.15883 4.66043H5.16933Z" fill="#2196F3"/>
</svg>
